<?xml version="1.0" encoding="UTF-8" standalone="no"?>
<svg width="53px" height="50px" viewBox="0 0 53 50" version="1.1" xmlns="http://www.w3.org/2000/svg" xmlns:xlink="http://www.w3.org/1999/xlink">
    <!-- Generator: sketchtool 49 (51002) - http://www.bohemiancoding.com/sketch -->
    <title>ED794C17-41D2-4316-9B04-3E3455BDEB60</title>
    <desc>Created with sketchtool.</desc>
    <defs></defs>
    <g id="Page-1" stroke="none" stroke-width="1" fill="none" fill-rule="evenodd">
        <g id="Landing-tap-ru" transform="translate(-151.000000, -1020.000000)" fill="#000000" fill-rule="nonzero">
            <g id="Group" transform="translate(151.000000, 1020.000000)">
                <g id="gift">
                    <path d="M45.7208255,23.3333333 L45.7208255,46.4365817 L6.94594403,46.4365817 L6.94594403,23.3333333 L3.33333333,23.3333333 L3.33333333,48.2182908 C3.33333333,49.2024228 4.14189794,50 5.13958723,50 L47.5270794,50 C48.5247687,50 49.3333333,49.2024228 49.3333333,48.2182908 L49.3333333,23.3333333 L45.7208255,23.3333333 Z" id="Shape"></path>
                    <path d="M50.8610811,10 L1.80568842,10 C0.808311475,10 0,10.8043561 0,11.7968526 L0,23.5364807 C0,24.5289772 0.808311475,25.3333333 1.80568842,25.3333333 L50.8609782,25.3333333 C51.8583552,25.3333333 52.6666667,24.529489 52.6666667,23.5364807 L52.6666667,11.7968526 C52.6667695,10.8043561 51.8584581,10 50.8610811,10 Z M49.0553927,21.7402423 L3.61147971,21.7402423 L3.61147971,13.5944217 L49.0553927,13.5944217 L49.0553927,21.7402423 Z" id="Shape"></path>
                    <path d="M27.9413737,11.6912572 C27.8188971,11.213579 24.8484792,0 16.1758189,0 C12.4028404,0 9.33333333,3.1401673 9.33333333,7 C9.33333333,10.8598327 12.3758627,14 16.1158115,14 L26.1995177,14 C26.757125,14 27.2841644,13.7353461 27.625027,13.2833778 C27.9658896,12.8314095 28.0824168,12.2432315 27.9413737,11.6912572 Z M16.1159141,10.3158337 C14.3321042,10.3158337 12.9347009,8.85929302 12.9347009,7 C12.9347009,5.20272539 14.4190893,3.68416634 16.1759215,3.68416634 C20.1271785,3.68416634 22.4932141,7.66625191 23.6306878,10.3157287 L16.1159141,10.3157287 L16.1159141,10.3158337 Z" id="Shape"></path>
                    <path d="M36.4909522,0 C27.818527,0 24.8480519,11.2134949 24.7255771,11.6911695 C24.5839207,12.2431397 24.700959,12.8314182 25.041919,13.2833832 C25.3828789,13.7353481 25.9091923,14 26.4674065,14 L36.5509587,14 C40.2908504,14 43.3333333,10.8598562 43.3333333,7.00005247 C43.3334359,3.14014376 40.2639757,0 36.4909522,0 Z M36.5510613,10.3157563 L29.0292221,10.3157563 C30.1582672,7.66619445 32.5170865,3.68424366 36.4916702,3.68424366 C38.2484756,3.68424366 39.7328413,5.20279133 39.7328413,7.00005247 C39.7327388,8.85922661 38.3354594,10.3157563 36.5510613,10.3157563 Z" id="Shape"></path>
                    <rect id="Rectangle-path" x="24.6666667" y="12" width="3.33333333" height="36.6666667"></rect>
                </g>
            </g>
        </g>
    </g>
</svg>