<?xml version="1.0" encoding="UTF-8" standalone="no"?>
<svg width="50px" height="62px" viewBox="0 0 50 62" version="1.1" xmlns="http://www.w3.org/2000/svg" xmlns:xlink="http://www.w3.org/1999/xlink">
    <!-- Generator: sketchtool 49 (51002) - http://www.bohemiancoding.com/sketch -->
    <title>7AB899D1-CF44-40E7-8EE4-96CC53484900</title>
    <desc>Created with sketchtool.</desc>
    <defs></defs>
    <g id="Page-1" stroke="none" stroke-width="1" fill="none" fill-rule="evenodd">
        <g id="Landing-tap-ru" transform="translate(-531.000000, -1283.000000)" fill="#000000" fill-rule="nonzero">
            <g id="Group-4" transform="translate(531.000000, 1283.000000)">
                <g id="gold-medal">
                    <path d="M30.7650718,30.8797847 C31.9771531,30.8797847 33.1505981,30.3753589 33.9844498,29.4958134 L48.7851675,13.886244 C50.448445,12.1320574 50.3906699,9.33480861 48.6562201,7.6507177 L42.0675837,1.25358852 C41.2348086,0.445095694 40.1373206,0 38.9769139,0 L10.9098086,0 C10.4029904,0 9.90287081,0.089354067 9.43110048,0.256698565 C9.41566986,0.261483254 9.40047847,0.267105263 9.38516746,0.272368421 C9.37787081,0.275 9.37069378,0.277870813 9.36339713,0.280502392 C9.31722488,0.296889952 9.2715311,0.314593301 9.22655502,0.33492823 C8.65801435,0.568301435 8.13732057,0.917583732 7.70657895,1.36698565 L1.23086124,8.12523923 C-0.440550239,9.86937799 -0.398444976,12.6660287 1.32464115,14.3590909 L16.8424641,29.6076555 C17.6772727,30.42811 18.7815789,30.8797847 19.9521531,30.8797847 L23.5406699,30.8797847 L23.5406699,33.5874402 C16.7288278,34.4706938 11.45,40.3092105 11.45,47.3577751 C11.45,55.0145933 17.6793062,61.2440191 25.336244,61.2440191 C32.9931818,61.2440191 39.222488,55.0147129 39.222488,47.3577751 C39.222488,40.3093301 33.9435407,34.4708134 27.1316986,33.5874402 L27.1316986,30.8796651 L30.7650718,30.8796651 L30.7650718,30.8797847 Z M40.0666268,4.31602871 L46.1545455,10.2269139 C46.4851675,10.5479665 46.4961722,11.0811005 46.1791866,11.4154306 L34.8808612,23.3313397 L27.8144737,16.5683014 L40.0666268,4.31602871 Z M35.7135167,3.59090909 L25.2198565,14.0845694 L14.2553828,3.59090909 L35.7135167,3.59090909 Z M35.6311005,47.3578947 C35.6311005,53.034689 31.0126794,57.65311 25.3358852,57.65311 C19.6590909,57.65311 15.0406699,53.034689 15.0406699,47.3578947 C15.0406699,41.6811005 19.6590909,37.0626794 25.3358852,37.0626794 C31.0126794,37.0626794 35.6311005,41.6811005 35.6311005,47.3578947 Z M19.9519139,27.2888756 C19.7287081,27.2888756 19.5183014,27.2029904 19.3592105,27.0465311 L3.84138756,11.7978469 C3.51303828,11.4751196 3.50490431,10.9422249 3.82356459,10.609689 L9.83755981,4.33325359 L32.4100478,25.9370813 L31.3784689,27.025 C31.2194976,27.1925837 30.995933,27.2886364 30.7650718,27.2886364 L19.9519139,27.2886364 L19.9519139,27.2888756 Z" id="Shape"></path>
                    <path d="M26.4257177,42.1322967 C26.2162679,41.9960526 25.9850478,41.9278708 25.7318182,41.9278708 C25.5565789,41.9278708 25.4151914,41.9619617 25.3083732,42.0301435 L23.3800239,43.1988038 C23.097488,43.3644737 22.9564593,43.6223684 22.9564593,43.9729665 C22.9564593,44.2066986 23.0244019,44.4162679 23.1610048,44.6011962 C23.2972488,44.7861244 23.467823,44.8787081 23.6722488,44.8787081 C23.7988038,44.8787081 23.9204545,44.8399522 24.0374402,44.7617225 L24.4610048,44.4988038 L24.4610048,51.9337321 C24.4610048,52.1577751 24.5729665,52.3305024 24.7970096,52.4522727 C25.0208134,52.5742823 25.2886364,52.6348086 25.6004785,52.6348086 C25.9120813,52.6348086 26.1796651,52.5741627 26.4039474,52.4522727 C26.6277512,52.3305024 26.7399522,52.1577751 26.7399522,51.9337321 L26.7399522,42.6435407 C26.7398325,42.4391148 26.6349282,42.2686603 26.4257177,42.1322967 Z" id="Shape"></path>
                </g>
            </g>
        </g>
    </g>
</svg>