<?xml version="1.0" encoding="UTF-8" standalone="no"?>
<svg width="166px" height="35px" viewBox="0 0 166 35" version="1.1" xmlns="http://www.w3.org/2000/svg" xmlns:xlink="http://www.w3.org/1999/xlink">
    <!-- Generator: sketchtool 49 (51002) - http://www.bohemiancoding.com/sketch -->
    <title>43CDC742-1ADD-4CFB-B724-41C4D8BF9F92</title>
    <desc>Created with sketchtool.</desc>
    <defs></defs>
    <g id="Page-1" stroke="none" stroke-width="1" fill="none" fill-rule="evenodd">
        <g id="Landing-tap-ru" transform="translate(-50.000000, -35.000000)" fill="#FFFFFF" fill-rule="nonzero">
            <g id="logo-fdfd74c03827583df005b481bff6d4fefa7117eb144df062ebc3782bc668f147" transform="translate(50.000000, 35.000000)">
                <path d="M15.3974377,25.390834 C15.423491,25.5726619 15.4365176,25.7220182 15.4365176,25.8389075 C15.4365176,25.9557969 15.2932264,26.0661907 15.0066398,26.1700923 C14.0426668,26.4558218 13.0787083,26.6376469 12.1147353,26.7155731 C11.1507623,26.7934994 10.3300949,26.8324619 9.65270843,26.8324619 C7.41212252,26.8324619 5.80986712,26.3584178 4.84589411,25.4103154 C3.88192111,24.4622131 3.39994184,23.0660559 3.39994184,21.2218019 L3.39994184,10.1173708 L0.664356451,10.1173708 C0.377769882,10.1173708 0.195399347,10.0459395 0.117239374,9.90307479 C0.0390794005,9.76021004 0,9.58487866 0,9.3770754 L0,7.27307791 C0,7.01332387 0.032566167,6.83799249 0.0976994779,6.74707856 C0.162832789,6.65616463 0.338690091,6.57174583 0.62527666,6.4938196 L3.51718121,5.83145003 L3.79073975,2.1689359 C3.81679307,1.85723101 3.90146511,1.63644336 4.0447584,1.50656633 C4.18805168,1.37668929 4.40298838,1.27278922 4.68957495,1.194863 L8.28491571,0.0259755084 C8.51939569,-0.0259753064 8.70827945,-2.88614404e-07 8.85157268,0.103901341 C8.99486598,0.20780297 9.06651158,0.415603112 9.06651158,0.727308001 L9.06651158,5.94833878 L13.3652886,5.94833878 C13.6518752,5.94833878 13.8277325,6.00678256 13.8928658,6.1236719 C13.9579991,6.24056124 13.9905652,6.4029051 13.9905652,6.61070836 L13.9905652,9.3770754 C13.9905652,9.63682951 13.9645123,9.82514834 13.9124056,9.9420377 C13.860299,10.0589271 13.6779285,10.1173708 13.3652886,10.1173708 L9.06651158,10.1173708 L9.06651158,20.0139515 C9.06651158,20.7672384 9.25539535,21.2867387 9.63316855,21.5724682 C10.0109418,21.8581977 10.5775931,22.0010603 11.3331395,22.0010603 C11.5155127,22.0010603 11.7369627,21.9880727 11.9974959,21.9620974 C12.2580291,21.936122 12.5250717,21.9101469 12.7986317,21.8841715 C13.0721915,21.8581961 13.3392341,21.8322211 13.5997673,21.8062457 C13.8603006,21.7802703 14.0817505,21.7542953 14.2641238,21.7283198 C14.680977,21.6503937 14.9024269,21.7802687 14.9284802,22.117949 L15.3974377,25.390834 Z M36.406772,23.8712802 C36.406772,24.2089606 36.3611794,24.4946857 36.2699927,24.7284644 C36.1788061,24.9622431 35.9508429,25.1830307 35.5860964,25.390834 C34.9868699,25.6765635 34.3420598,25.9103386 33.6516467,26.0921664 C32.9612337,26.2739943 32.2578045,26.4168569 31.541338,26.5207585 C30.8248716,26.6246602 30.1019027,26.7025852 29.3724096,26.7545361 C28.6429165,26.8064868 27.9525138,26.8324619 27.3011807,26.8324619 C25.5295546,26.8324619 24.0640771,26.6636243 22.9047042,26.325944 C21.7453312,25.9882637 20.8139389,25.5272071 20.1104991,24.9427604 C19.4070593,24.3583138 18.9120536,23.6699758 18.625467,22.8777259 C18.3388805,22.0854759 18.1955893,21.2347941 18.1955893,20.3256549 C18.1955893,19.312614 18.3649334,18.3840071 18.7036266,17.5398063 C19.0423198,16.6956056 19.550352,15.9618114 20.2277384,15.3384016 C20.9051249,14.7149918 21.7583585,14.2279602 22.7874648,13.8772922 C23.8165711,13.5266242 25.0345457,13.3512928 26.4414253,13.3512928 L30.7402023,13.3512928 L30.7402023,12.7278862 C30.7402023,12.3642305 30.7011229,12.0135678 30.6229629,11.6758874 C30.544803,11.3382072 30.3819721,11.0459882 30.1344655,10.7992219 C29.886959,10.5524555 29.5417576,10.3511491 29.0988511,10.1952966 C28.6559446,10.0394442 28.0697535,9.96151912 27.3402604,9.96151912 C26.9494606,9.96151912 26.5065607,9.9810004 26.0115476,10.0199635 C25.5165344,10.0589266 25.0215287,10.1108766 24.5265155,10.1758152 C24.0315023,10.2407537 23.549523,10.3186788 23.0805632,10.4095927 C22.6116034,10.5005066 22.1947564,10.5979129 21.8300099,10.7018145 C21.4913167,10.7797408 21.2568402,10.7797408 21.1265737,10.7018145 C20.996307,10.6238883 20.9051217,10.4550507 20.8530151,10.1952966 L20.2277384,7.46789253 C20.1495785,7.18216303 20.1430653,6.98085664 20.2081986,6.86396731 C20.2733318,6.74707797 20.4101097,6.64967166 20.6185363,6.57174544 C21.790936,6.15613892 23.0219371,5.85742622 24.3115766,5.67559836 C25.6012162,5.49377051 26.8843232,5.40285795 28.1609361,5.40285795 C31.0007484,5.40285795 33.0849832,6.00677711 34.4137027,7.21463358 C35.7424222,8.42249002 36.406772,10.2082725 36.406772,12.5720345 L36.406772,23.8712802 Z M30.8342633,17.1306957 L27.7469598,17.1306957 C27.3822133,17.1306957 26.9914192,17.1566708 26.574566,17.2086216 C26.1577129,17.2605724 25.7734321,17.3839537 25.4217122,17.5787692 C25.0699923,17.7735848 24.7768969,18.0528162 24.5424169,18.416472 C24.307937,18.7801277 24.1906988,19.273653 24.1906988,19.8970628 C24.1906988,20.8062021 24.4968207,21.44259 25.1090739,21.8062457 C25.721327,22.1699014 26.5485077,22.3517265 27.5906406,22.3517265 C27.7469606,22.3517265 27.955384,22.3452328 28.2159173,22.332245 C28.4764505,22.3192574 28.7565196,22.2932823 29.0561328,22.2543192 C29.355746,22.2153561 29.661868,22.1634061 29.9745079,22.0984676 C30.2871478,22.0335291 30.57373,21.9491103 30.8342633,21.8452086 L30.8342633,17.1306957 Z M46.0515875,33.6899352 C46.0515875,33.9756647 46.0059948,34.1574897 45.9148082,34.235416 C45.8236216,34.3133422 45.5956584,34.3523047 45.2309118,34.3523047 L41.1666136,34.3523047 C40.8800271,34.3523047 40.6716035,34.3133422 40.5413369,34.235416 C40.4110703,34.1574897 40.345938,33.9756647 40.345938,33.6899352 L40.345938,8.28611378 C40.345938,8.00038428 40.3915306,7.77310289 40.4827173,7.60426275 C40.5739039,7.43542254 40.7888406,7.26009123 41.1275338,7.07826336 C42.3780934,6.50680439 43.7784385,6.10419161 45.3286114,5.87041295 C46.8787842,5.63663428 48.3572881,5.5197467 49.7641677,5.5197467 C51.6139537,5.5197467 53.1706165,5.79897814 54.4342027,6.3574494 C55.6977889,6.91592065 56.7138534,7.66919615 57.4824264,8.61729855 C58.2509995,9.56540088 58.8046243,10.6888204 59.1433176,11.9875908 C59.4820108,13.2863612 59.6513548,14.6760246 59.6513548,16.1566229 C59.6513548,17.6112457 59.4689843,18.9814278 59.1042378,20.2672105 C58.7394913,21.5529931 58.1793532,22.6764127 57.4238068,23.6375028 C56.6682604,24.5985928 55.710815,25.3583621 54.5514421,25.9168334 C53.3920692,26.4753046 52.0308034,26.7545361 50.4676039,26.7545361 C49.6860042,26.7545361 48.9630353,26.7220673 48.2986755,26.6571287 C47.6343157,26.5921902 46.8852939,26.4688089 46.0515875,26.2869811 L46.0515875,33.6899352 Z M53.7112266,16.0397341 C53.7112266,14.9747424 53.6070149,14.0786043 53.3985883,13.3512928 C53.1901617,12.6239814 52.8840397,12.0395435 52.4802132,11.5979616 C52.0763866,11.1563797 51.5813809,10.8446795 50.9951811,10.6628516 C50.4089813,10.4810238 49.7511447,10.3901112 49.0216516,10.3901112 C48.6569051,10.3901112 48.1814391,10.4290738 47.5952393,10.507 C47.0090395,10.5849262 46.494494,10.6888263 46.0515875,10.8187033 L46.0515875,21.4555795 C46.7289739,21.6374073 47.3347047,21.7542949 47.8687978,21.8062457 C48.4028909,21.8581965 48.878357,21.8841715 49.2952102,21.8841715 C50.5978764,21.8841715 51.6595335,21.4425962 52.4802132,20.5594324 C53.3008929,19.6762685 53.7112266,18.1697175 53.7112266,16.0397341 Z M70.9063348,23.3647623 C70.9063348,24.3518278 70.5611332,25.1830284 69.8707202,25.858389 C69.1803072,26.5337495 68.3270736,26.8714248 67.3109939,26.8714248 C66.8159808,26.8714248 66.3470279,26.7805122 65.9041214,26.5986844 C65.4612149,26.4168565 65.0769342,26.1700939 64.7512676,25.858389 C64.425601,25.5466841 64.1650717,25.1765401 63.9696717,24.7479459 C63.7742718,24.3193516 63.6765733,23.8582951 63.6765733,23.3647623 C63.6765733,22.8712296 63.7742718,22.410173 63.9696717,21.9815788 C64.1650717,21.5529846 64.425601,21.1828406 64.7512676,20.8711357 C65.0769342,20.5594308 65.4612149,20.3126681 65.9041214,20.1308403 C66.3470279,19.9490124 66.8159808,19.8580999 67.3109939,19.8580999 C68.3270736,19.8580999 69.1803072,20.1957751 69.8707202,20.8711357 C70.5611332,21.5464963 70.9063348,22.3776969 70.9063348,23.3647623 Z M93.0254965,23.8712802 C93.0254965,24.2089606 92.9799039,24.4946857 92.8887174,24.7284644 C92.7975308,24.9622431 92.5695673,25.1830307 92.2048212,25.390834 C91.6055948,25.6765635 90.9607843,25.9103386 90.2703713,26.0921664 C89.5799584,26.2739943 88.8765289,26.4168569 88.1600624,26.5207585 C87.4435959,26.6246602 86.7206273,26.7025852 85.9911344,26.7545361 C85.2616407,26.8064868 84.5712383,26.8324619 83.9199055,26.8324619 C82.1482792,26.8324619 80.6828018,26.6636243 79.5234284,26.325944 C78.3640557,25.9882637 77.4326633,25.5272071 76.7292239,24.9427604 C76.0257839,24.3583138 75.5307782,23.6699758 75.2441914,22.8777259 C74.9576047,22.0854759 74.8143138,21.2347941 74.8143138,20.3256549 C74.8143138,19.312614 74.9836576,18.3840071 75.3223508,17.5398063 C75.661044,16.6956056 76.1690769,15.9618114 76.8464626,15.3384016 C77.5238491,14.7149918 78.3770828,14.2279602 79.4061897,13.8772922 C80.4352958,13.5266242 81.65327,13.3512928 83.0601501,13.3512928 L87.3589268,13.3512928 L87.3589268,12.7278862 C87.3589268,12.3642305 87.3198474,12.0135678 87.2416873,11.6758874 C87.1635272,11.3382072 87.0006967,11.0459882 86.75319,10.7992219 C86.5056833,10.5524555 86.1604824,10.3511491 85.7175755,10.1952966 C85.2746693,10.0394442 84.6884778,9.96151912 83.9589848,9.96151912 C83.5681851,9.96151912 83.1252852,9.9810004 82.6302718,10.0199635 C82.1352591,10.0589266 81.6402534,10.1108766 81.14524,10.1758152 C80.6502266,10.2407537 80.1682473,10.3186788 79.6992875,10.4095927 C79.2303277,10.5005066 78.8134807,10.5979129 78.4487346,10.7018145 C78.1100413,10.7797408 77.8755646,10.7797408 77.745298,10.7018145 C77.6150314,10.6238883 77.5238463,10.4550507 77.4717398,10.1952966 L76.8464626,7.46789253 C76.7683033,7.18216303 76.76179,6.98085664 76.826923,6.86396731 C76.8920566,6.74707797 77.0288343,6.64967166 77.237261,6.57174544 C78.4096608,6.15613892 79.6406615,5.85742622 80.9303015,5.67559836 C82.2199408,5.49377051 83.5030479,5.40285795 84.7796608,5.40285795 C87.6194732,5.40285795 89.7037076,6.00677711 91.0324269,7.21463358 C92.3611469,8.42249002 93.0254965,10.2082725 93.0254965,12.5720345 L93.0254965,23.8712802 Z M87.3198467,17.1306957 L84.2325437,17.1306957 C83.8677969,17.1306957 83.4770028,17.1566708 83.0601501,17.2086216 C82.6432968,17.2605724 82.2590159,17.3839537 81.9072962,17.5787692 C81.5555759,17.7735848 81.2624808,18.0528162 81.0280005,18.416472 C80.793521,18.7801277 80.6762823,19.273653 80.6762823,19.8970628 C80.6762823,20.8062021 80.9824045,21.44259 81.5946573,21.8062457 C82.2069108,22.1699014 83.0340916,22.3517265 84.0762242,22.3517265 C84.2325444,22.3517265 84.4409676,22.3452328 84.7015007,22.332245 C84.9620345,22.3192574 85.2421032,22.2932823 85.5417164,22.2543192 C85.8413295,22.2153561 86.1474518,22.1634061 86.4600914,22.0984676 C86.7727317,22.0335291 87.0593136,21.9491103 87.3198467,21.8452086 L87.3198467,17.1306957 Z M114.050424,8.8705575 C114.050424,9.26018863 113.991805,9.64332012 113.874566,10.0199635 C113.757325,10.3966069 113.555415,10.7537634 113.268829,11.0914437 L103.889679,21.6114311 L103.967838,21.8062457 L113.503307,21.8062457 C113.789894,21.8062457 113.985291,21.851702 114.089504,21.9426159 C114.193717,22.0335298 114.245823,22.2218487 114.245823,22.5075782 L114.245823,25.6635744 C114.245823,25.9493039 114.200231,26.1441165 114.109044,26.2480182 C114.017857,26.3519198 113.828974,26.4038698 113.542387,26.4038698 L98.3403479,26.4038698 C97.689015,26.4038698 97.213549,26.2545135 96.9139358,25.9557963 C96.6143226,25.6570791 96.4645185,25.2479725 96.4645185,24.7284644 L96.4645185,23.5595769 C96.4645185,23.1699458 96.5231375,22.7803206 96.6403776,22.3906894 C96.757617,22.0010583 97.0116334,21.585458 97.4024332,21.1438761 L106.742503,10.6238887 L106.664344,10.4680371 L98.1449491,10.4680371 C97.8323094,10.4680371 97.636912,10.416087 97.5587526,10.3121854 C97.4805925,10.2082837 97.4415132,10.0134712 97.4415132,9.72774166 L97.4415132,6.68863419 C97.4415132,6.19510144 97.6890157,5.94833878 98.1840291,5.94833878 L112.096434,5.94833878 C112.747768,5.94833878 113.236261,6.0457451 113.561927,6.24056065 C113.887593,6.43537621 114.050424,6.85747024 114.050424,7.50685544 L114.050424,8.8705575 Z M120.196608,16.2876 L121.968675,16.2876 L121.968675,13.916 L121.922447,12.6532 C122.538819,13.1768 123.201418,13.4848 123.864017,13.4848 C125.543629,13.4848 127.099966,11.991 127.099966,9.4038 C127.099966,7.063 126.005907,5.5538 124.125975,5.5538 C123.293873,5.5538 122.477181,6.0004 121.845401,6.5394 L121.783764,6.5394 L121.660489,5.7386 L120.196608,5.7386 L120.196608,16.2876 Z M123.494194,12.0218 C123.047325,12.0218 122.523409,11.8524 121.968675,11.3904 L121.968675,7.8638 C122.554228,7.294 123.078143,7.0168 123.632878,7.0168 C124.773165,7.0168 125.266262,7.91 125.266262,9.4192 C125.266262,11.1286 124.495797,12.0218 123.494194,12.0218 Z M131.137198,13.4848 C132.16962,13.4848 132.909266,12.9766 133.571865,12.1912 L133.618093,12.1912 L133.756776,13.3 L135.205249,13.3 L135.205249,5.7386 L133.433181,5.7386 L133.433181,10.913 C132.863038,11.6522 132.416169,11.9602 131.75357,11.9602 C130.936878,11.9602 130.582464,11.4982 130.582464,10.2508 L130.582464,5.7386 L128.810397,5.7386 L128.810397,10.4818 C128.810397,12.3914 129.519224,13.4848 131.137198,13.4848 Z M139.180844,13.4848 C139.596895,13.4848 139.90508,13.4232 140.12081,13.3308 L139.889671,12.0064 C139.750987,12.0372 139.68935,12.0372 139.612304,12.0372 C139.427392,12.0372 139.227072,11.8832 139.227072,11.452 L139.227072,2.4276 L137.455004,2.4276 L137.455004,11.3596 C137.455004,12.6686 137.917283,13.4848 139.180844,13.4848 Z M143.741992,13.4848 C145.652743,13.4848 146.685165,12.4376 146.685165,11.144 C146.685165,9.7272 145.544878,9.2344 144.512456,8.8494 C143.695764,8.5568 142.940709,8.3258 142.940709,7.7252 C142.940709,7.2478 143.295122,6.8936 144.050177,6.8936 C144.651139,6.8936 145.190464,7.1554 145.71438,7.5404 L146.531072,6.4624 C145.9147,5.985 145.06719,5.5538 144.019359,5.5538 C142.324338,5.5538 141.261097,6.4932 141.261097,7.8176 C141.261097,9.0804 142.385975,9.6502 143.387578,10.0198 C144.188861,10.3278 145.005553,10.605 145.005553,11.2364 C145.005553,11.76 144.620321,12.145 143.803629,12.145 C143.033165,12.145 142.385975,11.8216 141.707966,11.298 L140.875865,12.4376 C141.615511,13.0382 142.70957,13.4848 143.741992,13.4848 Z M150.522076,13.4848 C151.554498,13.4848 152.294143,12.9766 152.956743,12.1912 L153.00297,12.1912 L153.141654,13.3 L154.590127,13.3 L154.590127,5.7386 L152.818059,5.7386 L152.818059,10.913 C152.247916,11.6522 151.801046,11.9602 151.138447,11.9602 C150.321755,11.9602 149.967342,11.4982 149.967342,10.2508 L149.967342,5.7386 L148.195274,5.7386 L148.195274,10.4818 C148.195274,12.3914 148.904101,13.4848 150.522076,13.4848 Z M156.23892,13.3 L162.156084,13.3 L162.156084,11.8832 L158.473266,11.8832 L162.03281,6.678 L162.03281,5.7386 L156.639561,5.7386 L156.639561,7.14 L159.813873,7.14 L156.23892,12.3452 L156.23892,13.3 Z M123.432557,26.7148001 C124.387932,26.7148001 125.29708,26.3760001 126.021316,25.8986001 L125.420354,24.7898001 C124.86562,25.1440001 124.310886,25.3442001 123.663696,25.3442001 C122.446363,25.3442001 121.583443,24.5742001 121.42935,23.2344001 L126.237046,23.2344001 C126.283274,23.0496001 126.314093,22.7108001 126.314093,22.3720001 C126.314093,20.2622001 125.235443,18.7838001 123.186008,18.7838001 C121.413941,18.7838001 119.703511,20.2930001 119.703511,22.7570001 C119.703511,25.2518001 121.336895,26.7148001 123.432557,26.7148001 Z M121.413941,22.0332001 C121.568034,20.8166001 122.338498,20.1544001 123.232236,20.1544001 C124.264658,20.1544001 124.773165,20.8628001 124.773165,22.0332001 L121.413941,22.0332001 Z M129.734954,26.7148001 C130.151004,26.7148001 130.45919,26.6532001 130.67492,26.5608001 L130.443781,25.2364001 C130.305097,25.2672001 130.24346,25.2672001 130.166414,25.2672001 C129.981502,25.2672001 129.781181,25.1132001 129.781181,24.6820001 L129.781181,15.6576001 L128.009114,15.6576001 L128.009114,24.5896001 C128.009114,25.8986001 128.471392,26.7148001 129.734954,26.7148001 Z M134.018734,26.7148001 C134.912473,26.7148001 135.682937,26.2682001 136.360945,25.6984001 L136.422582,25.6984001 L136.545857,26.5300001 L138.009738,26.5300001 L138.009738,22.0486001 C138.009738,19.9388001 137.069772,18.7838001 135.18984,18.7838001 C133.987916,18.7838001 132.909266,19.2458001 132.077165,19.7694001 L132.724354,20.9552001 C133.402363,20.5548001 134.11119,20.2160001 134.850835,20.2160001 C135.883257,20.2160001 136.206852,20.8936001 136.237671,21.6944001 C133.124996,22.0332001 131.784388,22.8802001 131.784388,24.4972001 C131.784388,25.8216001 132.693536,26.7148001 134.018734,26.7148001 Z M134.588878,25.3288001 C133.957097,25.3288001 133.494819,25.0362001 133.494819,24.3586001 C133.494819,23.6040001 134.172827,23.0650001 136.237671,22.8032001 L136.237671,24.4972001 C135.667527,25.0208001 135.205249,25.3288001 134.588878,25.3288001 Z M140.136219,26.5300001 L141.908287,26.5300001 L141.908287,21.2478001 C142.540068,20.6318001 142.971527,20.3084001 143.634127,20.3084001 C144.466228,20.3084001 144.820641,20.7704001 144.820641,22.0178001 L144.820641,26.5300001 L146.592709,26.5300001 L146.592709,21.7868001 C146.592709,19.8772001 145.883882,18.7838001 144.265907,18.7838001 C143.233485,18.7838001 142.463021,19.3228001 141.785013,19.9850001 L141.723376,19.9850001 L141.600101,18.9686001 L140.136219,18.9686001 L140.136219,26.5300001 Z M150.491257,26.7148001 C150.907308,26.7148001 151.215494,26.6532001 151.431224,26.5608001 L151.200084,25.2364001 C151.061401,25.2672001 150.999764,25.2672001 150.922717,25.2672001 C150.737806,25.2672001 150.537485,25.1132001 150.537485,24.6820001 L150.537485,15.6576001 L148.765418,15.6576001 L148.765418,24.5896001 C148.765418,25.8986001 149.227696,26.7148001 150.491257,26.7148001 Z M154.775038,26.7148001 C155.668776,26.7148001 156.439241,26.2682001 157.117249,25.6984001 L157.178886,25.6984001 L157.30216,26.5300001 L158.766042,26.5300001 L158.766042,22.0486001 C158.766042,19.9388001 157.826076,18.7838001 155.946143,18.7838001 C154.744219,18.7838001 153.66557,19.2458001 152.833468,19.7694001 L153.480658,20.9552001 C154.158667,20.5548001 154.867494,20.2160001 155.607139,20.2160001 C156.639561,20.2160001 156.963156,20.8936001 156.993975,21.6944001 C153.8813,22.0332001 152.540692,22.8802001 152.540692,24.4972001 C152.540692,25.8216001 153.44984,26.7148001 154.775038,26.7148001 Z M155.345181,25.3288001 C154.713401,25.3288001 154.251122,25.0362001 154.251122,24.3586001 C154.251122,23.6040001 154.929131,23.0650001 156.993975,22.8032001 L156.993975,24.4972001 C156.423831,25.0208001 155.961553,25.3288001 155.345181,25.3288001 Z M160.892523,26.5300001 L162.664591,26.5300001 L162.664591,21.9100001 C163.126869,20.7704001 163.851105,20.3546001 164.452068,20.3546001 C164.775662,20.3546001 164.975983,20.4008001 165.237941,20.4778001 L165.546127,18.9378001 C165.314987,18.8300001 165.068439,18.7838001 164.683207,18.7838001 C163.881924,18.7838001 163.080641,19.3228001 162.541316,20.3084001 L162.479679,20.3084001 L162.356405,18.9686001 L160.892523,18.9686001 L160.892523,26.5300001 Z" id="Logo"></path>
            </g>
        </g>
    </g>
</svg>