<?xml version="1.0" encoding="UTF-8" standalone="no"?>
<svg width="50px" height="66px" viewBox="0 0 50 66" version="1.1" xmlns="http://www.w3.org/2000/svg" xmlns:xlink="http://www.w3.org/1999/xlink">
    <!-- Generator: sketchtool 49 (51002) - http://www.bohemiancoding.com/sketch -->
    <title>295AC147-296A-48BD-8CC3-BDE8465F1E7B</title>
    <desc>Created with sketchtool.</desc>
    <defs></defs>
    <g id="Page-1" stroke="none" stroke-width="1" fill="none" fill-rule="evenodd">
        <g id="Landing-tap-ru" transform="translate(-911.000000, -1012.000000)" fill="#000000" fill-rule="nonzero">
            <g id="Group-3" transform="translate(911.000000, 1012.000000)">
                <g id="call-center-girl">
                    <path d="M38.3092511,41.5156388 L33.7303965,41.5156388 L33.7303965,37.0629956 C34.8317181,35.7671806 35.6821586,34.3394273 36.3951542,32.9066079 C36.6742291,32.8568282 36.9898678,32.7651982 37.2676211,32.6325991 C38.5431718,32.0231278 39.7180617,30.5381057 40.3806167,28.6599119 C41.1444934,26.4953744 41.0618943,24.2189427 40.2154185,22.9592511 C40.3286344,20.6211454 40.2601322,14.1050661 36.1636564,9.53546256 C35.4839207,8.77731278 34.7306167,8.12070485 33.9055066,7.56079295 C33.1911894,3.23039648 29.6251101,0 25.2048458,0 C20.8546256,0 16.8872247,3.15352423 16.1048458,7.39537445 C14.546696,8.28832599 13.2332599,9.44537445 12.1984581,10.8610132 C9.93612335,13.9566079 9.22665198,18.3323789 10.1257709,22.9592511 C8.95903084,24.1211454 8.70814978,26.165859 9.58744493,28.6601322 C10.0299559,29.9138767 10.7103524,31.0259912 11.5030837,31.7922907 C12.157489,32.4242291 12.8773128,32.8063877 13.592511,32.9167401 C14.3400881,34.4171806 15.2279736,35.9114537 16.3292952,37.253304 L16.3292952,41.5156388 L11.6770925,41.5156388 C5.10110132,41.5156388 0.0931718062,52.826652 0.0931718062,58.4594714 C0.0931718062,59.089207 0.457048458,59.6896476 1.02709251,59.9572687 C9.86453744,64.1057269 18.1971366,65.4048458 25.1312775,65.4048458 C28.7812775,65.4048458 32.0442731,65.0555066 34.7878855,64.5731278 C43.4284141,63.054185 48.8387665,60.054185 49.064978,59.9270925 C49.5764317,59.6394273 49.8931718,59.0447137 49.8931718,58.4579295 C49.8931718,52.8251101 44.885022,41.5156388 38.3092511,41.5156388 Z M13.7491189,25.6447137 C14.4605727,24.8112335 16.4834802,22.3200441 17.7251101,19.5682819 C20.3132159,22.2629956 25.8618943,25.4464758 37.6513216,25.4634361 C37.6984581,25.9138767 37.6627753,26.6524229 37.3356828,27.5792952 C36.8988987,28.8165198 36.2682819,29.4704846 35.9806167,29.6590308 C35.6449339,29.5488987 35.2801762,29.5502203 34.9418502,29.6674009 C34.5167401,29.8145374 34.1720264,30.1310573 33.9894273,30.5422907 C32.2409692,34.4764317 28.8110132,39.0707048 24.9931718,39.0707048 C22.9819383,39.0707048 21.1229075,37.796696 19.5255507,36.015859 C20.2914097,36.1614537 20.9922907,36.2099119 21.5742291,36.2099119 C21.6462555,36.2099119 21.715859,36.2244493 21.784141,36.223348 C22.1947137,36.7528634 22.8354626,37.1105727 23.557489,37.1105727 L26.4290749,37.1105727 C27.6689427,37.1105727 28.6643172,36.0742291 28.6643172,34.8343612 L28.6643172,34.1277533 C28.6643172,32.8878855 27.6687225,31.8242291 26.4290749,31.8242291 L23.5572687,31.8242291 C22.7378855,31.8242291 22.0231278,32.2940529 21.6312775,32.9493392 C20.9737885,32.9612335 20.0303965,32.9026432 19.0202643,32.5253304 C16.5429515,31.6002203 14.7473568,29.2281938 13.7491189,25.6447137 Z M25.2055066,3.24779736 C27.1453744,3.24779736 28.6469163,4.21894273 29.7028634,5.72136564 C28.3665198,5.3845815 26.6821586,5.21123348 25.1403084,5.21123348 L25.1403084,5.21189427 C23.3781938,5.22577093 21.7046256,5.42290749 20.1687225,5.79471366 C21.2207048,4.25132159 23.2407489,3.24779736 25.2055066,3.24779736 Z M14.788326,12.777533 C16.8257709,9.98942731 20.2942731,8.49625551 25.1400881,8.45969163 L25.1400881,8.45903084 C28.6643172,8.45903084 31.7779736,9.5469163 33.707489,11.6922907 C36.603304,14.9127753 36.99163,19.8017621 36.9812628,22.2123348 C28.3790749,22.1059471 23.857489,20.2092511 21.5585903,18.6105727 C19.2374449,16.996696 18.7566079,15.4319383 18.7037445,15.2376652 C18.5700441,14.4059471 17.8237885,13.8488987 16.9872247,13.910793 C16.1396476,13.9744493 15.4918502,14.714978 15.4918502,15.564978 C15.4918502,17.0621145 14.3669604,19.2127753 13.1240088,21.0689427 C12.6795154,17.7790749 13.2328194,14.9057269 14.788326,12.777533 Z M17.9561674,44.8196035 C18.8528634,44.8196035 19.4129956,44.1469163 19.4129956,43.25 L19.4129956,40.4101322 C21.1751101,41.5856828 22.9436123,42.3182819 24.9196035,42.3182819 C26.9548458,42.3182819 28.8843612,41.5420705 30.6464758,40.3030837 L30.6464758,43.25 C30.6464758,44.1469163 31.3493392,44.8196035 32.2464758,44.8196035 L33.985022,44.8196035 L24.9931718,51.8519824 L16.0013216,44.8196035 L17.9561674,44.8196035 Z M34.2253304,61.3812775 C26.9264317,62.6647577 15.7303965,62.9993392 3.40022026,57.4993392 C3.89757709,52.9610132 7.45264317,45.9764317 10.8832599,44.9944934 L23.9929515,55.2473568 C24.2870044,55.4770925 24.6398678,55.5918502 24.9933921,55.5918502 C25.346696,55.5918502 25.6997797,55.4770925 25.9938326,55.2473568 L39.1035242,44.9944934 C42.545815,45.9799559 46.1136564,53.0099119 46.5914097,57.546696 C44.8,58.4063877 40.3788546,60.2993392 34.2253304,61.3812775 Z" id="Shape"></path>
                </g>
            </g>
        </g>
    </g>
</svg>