<?xml version="1.0" encoding="UTF-8" standalone="no"?>
<svg width="35px" height="70px" viewBox="0 0 35 70" version="1.1" xmlns="http://www.w3.org/2000/svg" xmlns:xlink="http://www.w3.org/1999/xlink">
    <!-- Generator: sketchtool 49 (51002) - http://www.bohemiancoding.com/sketch -->
    <title>E6B3A4C7-D326-4CE2-A2D0-FAF6CD88ECEF</title>
    <desc>Created with sketchtool.</desc>
    <defs></defs>
    <g id="Page-1" stroke="none" stroke-width="1" fill="none" fill-rule="evenodd">
        <g id="Landing-tap-ru" transform="translate(-531.000000, -1010.000000)" fill="#000000" fill-rule="nonzero">
            <g id="Group-2" transform="translate(531.000000, 1010.000000)">
                <g id="flyer-2">
                    <path d="M32.081875,5.83296875 L32.081875,0 L0,5.83296875 L0,70 L35,70 L35,5.83296875 L32.081875,5.83296875 Z M29.1659375,3.49480469 L29.1659375,5.83296875 L16.3037109,5.83296875 L29.1659375,3.49480469 Z M32.081875,67.081875 L2.91375,67.081875 L2.91375,8.75 L32.081875,8.75 L32.081875,67.081875 Z" id="Shape"></path>
                    <path d="M20.2396869,22 L15.2151756,31.1693925 L12.5702349,26.5709867 L6,38 L11.4751957,38 L19.1446477,38 L29,38 L20.2396869,22 Z M13.117687,34.998796 L11.0792296,34.998796 L12.5701001,32.401849 L13.5809054,34.1562541 L13.117687,34.998796 Z M16.4321852,34.998796 L20.2395521,28.0462786 L24.0469189,34.998796 L16.4321852,34.998796 Z" id="Shape"></path>
                    <path d="M22.5016873,53 L13.5028121,53 C12.6723847,53 12,53.6719921 12,54.4977511 C12,55.3278673 12.6722441,56 13.5028121,56 L22.5016873,56 C23.3277559,56 24,55.3280079 24,54.4977511 C24,53.6719921 23.3277559,53 22.5016873,53 Z" id="Shape"></path>
                    <path d="M27.5638477,47 L7.43615226,47 C6.64435473,47 6,47.6708896 6,48.5 C6,49.3291104 6.6444895,50 7.43615226,50 L27.5638477,50 C28.3578017,50 29,49.3291104 29,48.5 C29,47.6708896 28.3576669,47 27.5638477,47 Z" id="Shape"></path>
                </g>
            </g>
        </g>
    </g>
</svg>