<?xml version="1.0" encoding="UTF-8" standalone="no"?>
<svg width="40px" height="67px" viewBox="0 0 40 67" version="1.1" xmlns="http://www.w3.org/2000/svg" xmlns:xlink="http://www.w3.org/1999/xlink">
    <!-- Generator: sketchtool 49 (51002) - http://www.bohemiancoding.com/sketch -->
    <title>426D4071-558C-4CC1-8CCA-EF31D085A6FA</title>
    <desc>Created with sketchtool.</desc>
    <defs></defs>
    <g id="Page-1" stroke="none" stroke-width="1" fill="none" fill-rule="evenodd">
        <g id="Landing-tap-ru" transform="translate(-151.000000, -1281.000000)" fill="#000000" fill-rule="nonzero">
            <g id="Group-5" transform="translate(151.000000, 1281.000000)">
                <g id="smartphone-6">
                    <path d="M39.8851351,61 L39.8851351,5.13513514 C39.8851351,2.31081081 37.5878378,0 34.75,0 L5.18243243,0 C2.35810811,0 0.0472972973,2.2972973 0.0472972973,5.13513514 L0.0472972973,61.0135135 C0.0472972973,63.8378378 2.34459459,66.1486486 5.18243243,66.1486486 L34.75,66.1486486 C37.5743243,66.1351351 39.8851351,63.8378378 39.8851351,61 Z M3.35810811,11.9054054 L36.5608108,11.9054054 L36.5608108,49.5 L3.35810811,49.5 L3.35810811,11.9054054 Z M5.18243243,3.31081081 L34.75,3.31081081 C35.75,3.31081081 36.5743243,4.12162162 36.5743243,5.13513514 L36.5743243,8.59459459 L3.35810811,8.59459459 L3.35810811,5.13513514 C3.35810811,4.12162162 4.18243243,3.31081081 5.18243243,3.31081081 Z M3.35810811,61 L3.35810811,52.7972973 L36.5608108,52.7972973 L36.5608108,61 C36.5608108,62 35.75,62.8243243 34.7364865,62.8243243 L5.18243243,62.8243243 C4.18243243,62.8243243 3.35810811,62.0135135 3.35810811,61 Z" id="Shape"></path>
                    <path d="M23.3175676,56.2972973 L16.6013514,56.2972973 C15.6824324,56.2972973 14.9391892,57.0405405 14.9391892,57.9594595 C14.9391892,58.8783784 15.6824324,59.6216216 16.6013514,59.6216216 L23.3175676,59.6216216 C24.2364865,59.6216216 24.9797297,58.8783784 24.9797297,57.9594595 C24.9797297,57.0405405 24.2364865,56.2972973 23.3175676,56.2972973 Z" id="Shape"></path>
                </g>
            </g>
        </g>
    </g>
</svg>